<svg xmlns="http://www.w3.org/2000/svg" viewBox="0 0 256 125.87"><defs><style>.cls-1{fill:#fff;}</style></defs><g id="Слой_2" data-name="Слой 2"><g id="Слой_1-2" data-name="Слой 1"><ellipse class="cls-1" cx="201.2" cy="96.03" rx="5.56" ry="5.49"/><ellipse class="cls-1" cx="56.22" cy="96.03" rx="5.56" ry="5.49"/><path class="cls-1" d="M214.7,37.77,192,34.35l-6.69-7.24A84.9,84.9,0,0,0,123.07,0H105.31A81.54,81.54,0,0,0,93.89.83l-.19,0a80.05,80.05,0,0,0-54.86,34C16.23,43,0,63.94,0,85.28a16.7,16.7,0,0,0,16.78,16.58H26.6a30.28,30.28,0,0,0,59.25,0h85.73a30.29,30.29,0,0,0,59.26,0h8.38A16.7,16.7,0,0,0,256,85.28C256,61.37,238.63,41.39,214.7,37.77ZM123.08,11.24A73.46,73.46,0,0,1,176.2,34H112.25L103,11.31c.78,0,1.56-.07,2.35-.07ZM91.25,12.69,100,34H54A68.72,68.72,0,0,1,91.25,12.69Zm-35,101.94A18.61,18.61,0,1,1,75.06,96,18.74,18.74,0,0,1,56.23,114.63Zm145,0A18.61,18.61,0,1,1,220.05,96,18.74,18.74,0,0,1,201.21,114.63Z"/></g></g></svg>